<svg xmlns="http://www.w3.org/2000/svg" width="600" height="600" viewBox="0 0 600 600"><path d="M399.43,20.64,59.89,306.88c-12.47,10.51-8.5,29.18,8.3,39L432.82,559.27c21.24,12.43,47.62,2.65,46.62-17.28L454.35,42.38C453.19,19.27,417.71,5.22,399.43,20.64Z" fill="#f3faff"/><circle cx="319.74" cy="306.47" r="116.27" fill="#d9eeff"/><path d="M357.28,313.55c-15.38-9.38-77.71-7.08-89.6,6.66-1.87,2.17-2.34,53.47-1.48,82,15.51,13,34.32,20.55,54.6,20.55a83,83,0,0,0,45.91-14.08C366.38,380.93,360.78,315.68,357.28,313.55Z" fill="#e01a22" stroke="#e01a22" stroke-miterlimit="10"/><circle cx="291.22" cy="238.31" r="17.3" fill="#003d66"/><ellipse cx="323.7" cy="275.19" rx="20.04" ry="23.33" fill="#f3faff"/><path d="M325.48,314.15c0,2.67-20.17,3-20.17,0V284a1.58,1.58,0,0,1,1.58-1.58h17a1.58,1.58,0,0,1,1.58,1.58Z" fill="#f3faff"/><path d="M301.3,278.34c1.54,0,30.21-13.32,30.21-16.59,0,1.72,10.87,9.72,12.23,9.72s1.51-2.43,1.51-4.74c0-2.53-6.7-16.66-24.83-16.66-6,0-21,5.08-21,24.36C299.42,276.8,300.3,278.34,301.3,278.34Z" fill="#003d66"/><circle cx="305.31" cy="279.46" r="5.03" fill="#f3faff"/><path d="M272.11,318c-16,0-15.35,54.61-13.45,87.92,8.53,12.31,17.13,20.18,28.1,23.61C287.81,413,295,318,272.11,318Z" fill="#f3faff"/><rect x="302.5" y="250.52" width="3.92" height="6.44" rx="1.9" transform="translate(-90.24 289.61) rotate(-45)" fill="#05518d" stroke="#0e3a66" stroke-miterlimit="10"/><circle cx="318.17" cy="305.71" r="202.97" fill="none" stroke="#d9eeff" stroke-miterlimit="10" stroke-width="8"/><path d="M493.44,222.86,495,234.55a9.51,9.51,0,0,0,15.22,6.31l9.35-7.17a9.51,9.51,0,0,0-2.14-16.33l-10.88-4.52A9.51,9.51,0,0,0,493.44,222.86Z" fill="#fafafa"/><circle cx="501.44" cy="239" r="53.35" fill="#f0f0f0"/><path d="M481.79,272.81c.23-1.42.43-20.36-1.42-23.71-4.3.84-7.9-3.59-7.9-7.19,0-4.06,1.89-7.76,4.68-7.47-1.62-1.62-2.55-4.81-2.55-9.76,0-7,6.89-9.6,10.9-13.51s10.54-9.91,17.37-9.91c6.63,0,6.92,3.9,9.61,3.63,13.6-1.36,17.94,5.3,17.94,9.4,0,9.82-7.59,14.37-9.7,14.38a29.68,29.68,0,0,1,1,8c0,18.2-17.62,27.28-25.65,25.64-.27,2-.81,11.16-.2,13.27C494.13,276.76,486.12,278.39,481.79,272.81Z" fill="#5aa7e1"/><path d="M486.5,244.19a65.56,65.56,0,0,0-.64-10.24,1.5,1.5,0,0,0-.9-1.1c-1.11-.44-3-1.92-3-5.39s2.55-6,4.52-6a2.39,2.39,0,0,1,2,.91,10.23,10.23,0,0,1-.41-4.06c.92-5.39,5.39-7.16,10.16-7.16a6.51,6.51,0,0,1,4.35,1.58.92.92,0,0,0,1.28,0,6.93,6.93,0,0,1,4.37-1.55,5.42,5.42,0,0,1,3.9,1.61.89.89,0,0,0,.94.27,8.12,8.12,0,0,1,2.22-.25c2.13,0,3.5,3.18,3.5,4.77a5.35,5.35,0,0,1-1.86,4.1.87.87,0,0,0-.12,1.22,3.7,3.7,0,0,1,.76,2.29,7.58,7.58,0,0,1-8.85,7.91.92.92,0,0,0-1,.49c-1,1.81-4.77,4.33-10.78,4.33a4.47,4.47,0,0,1-1.63-.3,1.56,1.56,0,0,0-1.88.57,60.61,60.61,0,0,0-4.05,6.7,1.5,1.5,0,0,1-1,.83h0A1.57,1.57,0,0,1,486.5,244.19Z" fill="#fff"/><path d="M500.41,222.62c1.45-1.24,4.18-5.43,2.94-8.71" fill="none" stroke="#5aa7e1" stroke-linecap="round" stroke-miterlimit="10"/><path d="M515.89,222.19c-.88-.85-4.64-2.63-10.06-1.1" fill="none" stroke="#5aa7e1" stroke-linecap="round" stroke-miterlimit="10"/><path d="M508.57,216.06c-.4.88-.4,3.54,1.13,4.47" fill="none" stroke="#5aa7e1" stroke-linecap="round" stroke-miterlimit="10"/><path d="M491.09,225.24c3.62-1.29,7.77,1.53,6.77,7.17" fill="none" stroke="#5aa7e1" stroke-linecap="round" stroke-miterlimit="10"/><path d="M508.06,232.72c.48-1.33.28-4.79-1.14-5.95" fill="none" stroke="#5aa7e1" stroke-linecap="round" stroke-miterlimit="10"/><circle cx="130.89" cy="373.87" r="53.35" fill="#f0f0f0"/><rect x="105.77" y="363.13" width="6.46" height="21.48" rx="1.58" fill="#fff"/><path d="M112.23,363.13l23.08-13.35c6.89,7,6.35,40.6,0,48.19l-23.08-13.36" fill="#5aa7e1"/><path d="M145.13,365.86a53.24,53.24,0,0,1,.13,15.17" fill="none" stroke="#5aa7e1" stroke-linecap="round" stroke-linejoin="round" stroke-width="2"/><path d="M149.38,363.13a53.06,53.06,0,0,1-.49,23.64" fill="none" stroke="#5aa7e1" stroke-linecap="round" stroke-linejoin="round" stroke-width="2"/><path d="M152.76,357.9a53.06,53.06,0,0,1-.21,32.59" fill="none" stroke="#5aa7e1" stroke-linecap="round" stroke-linejoin="round" stroke-width="2"/><circle cx="248.45" cy="114.15" r="53.35" fill="#f0f0f0"/><path d="M210.69,116c17.48,24.62,58.78,24.1,72.55,0C269.47,91.88,228.17,91.35,210.69,116Z" fill="#5aa7e1"/><line x1="246.96" y1="97.7" x2="246.96" y2="91.9" fill="none" stroke="#5aa7e1" stroke-linecap="round" stroke-miterlimit="10" stroke-width="4"/><line x1="282.72" y1="114.94" x2="286.82" y2="110.84" fill="none" stroke="#5aa7e1" stroke-linecap="round" stroke-miterlimit="10" stroke-width="4"/><line x1="211.21" y1="114.94" x2="207.11" y2="110.84" fill="none" stroke="#5aa7e1" stroke-linecap="round" stroke-miterlimit="10" stroke-width="4"/><line x1="227.59" y1="102.15" x2="224.5" y2="97.24" fill="none" stroke="#5aa7e1" stroke-linecap="round" stroke-miterlimit="10" stroke-width="4"/><line x1="268.14" y1="102.15" x2="271.23" y2="97.24" fill="none" stroke="#5aa7e1" stroke-linecap="round" stroke-miterlimit="10" stroke-width="4"/><circle cx="246.96" cy="115.97" r="14.17" fill="#fff"/><circle cx="246.96" cy="115.97" r="4.99" fill="#5aa7e1"/><circle cx="387.47" cy="496.12" r="53.35" fill="#f0f0f0"/><path d="M401.64,488a4,4,0,0,0-2.74,1.07,4,4,0,0,0-8.06.27,4,4,0,0,0-6.74-3V469.17a4,4,0,0,0-8.08,0v33.68c0,.75-.39,1.35-.86,1.35s-.86-.6-.86-1.35V493.5a2.25,2.25,0,0,1,.52-.08h-.69a4.87,4.87,0,0,0-4.85,4.85v3.91a9.5,9.5,0,0,0,2.73,6.66l5.66,7a14.88,14.88,0,0,0,3.74,3.29v6.64a1.35,1.35,0,0,0,1.35,1.35h18.86a1.36,1.36,0,0,0,1.35-1.35V517a10.25,10.25,0,0,0,2.69-6.92v-18A4,4,0,0,0,401.64,488Z" fill="#5aa7e1"/></svg>