<svg xmlns="http://www.w3.org/2000/svg" width="148" height="120" viewBox="0 0 148 120">
    <g fill="none" fill-rule="evenodd" transform="translate(0 -13)">
        <rect width="142" height="142" x="7" rx="2"/>
        <path fill="#20211F" d="M12.598 92.402l116.984-.12a2 2 0 0 1 2.002 2.002l-.028 27.607a2 2 0 0 1-1.998 1.998l-116.984.12a2 2 0 0 1-2.002-2.002L10.6 94.4a2 2 0 0 1 1.998-1.998z" opacity=".1"/>
        <path stroke="#FFF" stroke-linecap="round" stroke-width="3.331" d="M49.141 107.818l67.706-.07M49.147 102.632l67.705-.07M49.136 113.047l67.706-.07"/>
        <path stroke="#FFF" stroke-width="3" d="M40.372 107.915c-.004 4.31-3.462 7.808-7.722 7.813-4.261.004-7.712-3.487-7.707-7.797.004-4.31 3.462-7.809 7.723-7.813 4.26-.004 7.71 3.486 7.706 7.797"/>
        <path fill="#20211F" d="M12.598 55.354l116.984-.12a2 2 0 0 1 2.002 2.002l-.028 27.607a2 2 0 0 1-1.998 1.998l-116.984.12a2 2 0 0 1-2.002-2.002l.028-27.607a2 2 0 0 1 1.998-1.998z" opacity=".1"/>
        <path stroke="#FFF" stroke-linecap="round" stroke-width="3.331" d="M49.141 70.77l67.706-.07M49.147 65.584l67.705-.07M49.136 75.999l67.706-.07"/>
        <path stroke="#FFF" stroke-width="3" d="M40.372 70.867c-.004 4.31-3.462 7.808-7.722 7.812-4.261.005-7.712-3.486-7.707-7.796.004-4.31 3.462-7.809 7.723-7.813 4.26-.004 7.71 3.486 7.706 7.797"/>
        <g>
            <path fill="#20211F" d="M29.72 13.905l115.69 18.14a2 2 0 0 1 1.665 2.292l-4.277 26.736a2 2 0 0 1-2.285 1.66l-115.69-18.14A2 2 0 0 1 23.16 42.3l4.277-26.736a2 2 0 0 1 2.285-1.66z" opacity=".1"/>
            <path stroke="#FFF" stroke-linecap="round" stroke-width="3.331" d="M63.478 34.578l66.954 10.499M64.284 29.543l66.953 10.498M62.666 39.654l66.954 10.499"/>
            <path stroke="#FFF" stroke-width="3" d="M54.793 33.303c-.67 4.185-4.628 7.042-8.841 6.381-4.214-.66-7.087-4.589-6.417-8.773.669-4.185 4.627-7.042 8.841-6.381 4.213.66 7.086 4.588 6.417 8.773"/>
        </g>
        <path fill="#A53BC2" fill-rule="nonzero" d="M132.095 92.664v6H10.381v-6z" opacity=".3"/>
        <path fill="#A53BC2" fill-rule="nonzero" d="M10.381 93.027h12.397v31H10.381zM118.571 93.027h13.524v31h-13.524z" opacity=".3"/>
        <path fill="#A53BC2" fill-rule="nonzero" d="M132.095 117.39v7H10.381v-7z" opacity=".3"/>
        <path stroke="#B620E0" stroke-dasharray="5" stroke-linecap="square" d="M13.875 132l118.75.5M.75 120.75l.5-28.25"/>
    </g>
</svg>
