<svg xmlns="http://www.w3.org/2000/svg" width="600" height="600" viewBox="0 0 600 600"><g opacity="0.1"><path d="M339.48,554.38c-52.14,18-126.41-17.33-183.75-48.38S48,428,37.1,372.75s18-118.89,49-174c31.25-55.14,65-101.87,107.56-115.67s94.07,5.5,150.39,13.26S461.5,100.6,508.9,128.74s91.18,108,81.13,160.85C579.79,342.47,507,368,477.91,440.78,461,504.17,391.61,536.4,339.48,554.38Z"/></g><rect x="236.95" y="406.54" width="91.97" height="29.93" rx="14.97" transform="translate(565.87 843.02) rotate(180)" fill="#b3deff"/><circle cx="297.68" cy="421.51" r="3.92" fill="#fff"/><circle cx="282.93" cy="421.51" r="3.92" fill="#fff"/><circle cx="268.19" cy="421.51" r="3.92" fill="#fff"/><polygon points="256.95 394.93 256.95 409.03 271.58 409.03 256.95 394.93" fill="#b3deff"/><rect x="249.12" y="467.48" width="80.33" height="80.33" rx="10" fill="#f0f0f0"/><polyline points="304.33 495.19 288.07 495.19 284.5 536.63 300.75 536.63" fill="#f4f4f4"/><path d="M300.76,536.63,311.41,529l9.18,7.68Z" fill="#4bb7e3"/><path d="M312.18,486.87c.33-1.06.9-4.35.22-6.16" fill="none" stroke="#bcbcbc" stroke-linecap="round" stroke-linejoin="round" stroke-width="2.47"/><ellipse cx="310.98" cy="479.8" rx="1.27" ry="2.53" transform="translate(-212.31 249.4) rotate(-33.29)" fill="#bcbcbc"/><ellipse cx="304.98" cy="484.78" rx="1.4" ry="3.62" transform="translate(-137.21 120.78) rotate(-18.36)" fill="#bcbcbc"/><rect x="260.52" y="502.88" width="16.28" height="33.75" rx="7.67" fill="#f4f4f4"/><path d="M283.23,505.42c0,4.1,5,4.07,5,9.2v18.73a3.3,3.3,0,0,1-3.29,3.28h-7.37a3.29,3.29,0,0,1-3.28-3.28V514.62c0-5.13,5-5.1,5-9.2" fill="#b3deff"/><rect x="278.23" y="501.78" width="6.05" height="3.64" rx="1.26" fill="#df332a"/><path d="M297.85,495.19a4.62,4.62,0,1,0-9.24,0Z" fill="#df332a"/><path d="M306.53,495.19a3.29,3.29,0,1,0-6.5,0Z" fill="#bcbcbc"/><path d="M311.07,495.19c-.47-4.06-2.52-8.57-5.18-7.32-2,.92-.88,4.35.75,7.32Z" fill="#4bb7e3"/><path d="M313.36,495.19c1.29-3.72,1.42-8.22-1.38-8.34-2.5-.11-3,4.59-2.67,8.34Z" fill="#df332a"/><path d="M300.35,495.19c.7-3.19.4-6.32-1.93-6.42-2.08-.09-2.75,3.16-2.75,6.42Z" fill="#4bb7e3"/><polygon points="320.59 536.63 316.59 495.19 304.34 495.19 300.76 536.63 320.59 536.63" fill="#5aa7e1"/><rect x="340.5" y="467.48" width="80.33" height="80.33" rx="10" fill="#f0f0f0"/><polyline points="395.71 495.19 379.46 495.19 375.88 536.63 392.14 536.63" fill="#f4f4f4"/><path d="M392.15,536.63,402.79,529l9.18,7.68Z" fill="#4bb7e3"/><path d="M403.56,486.87c.33-1.06.9-4.35.23-6.16" fill="none" stroke="#bcbcbc" stroke-linecap="round" stroke-linejoin="round" stroke-width="2.47"/><ellipse cx="402.36" cy="479.8" rx="1.27" ry="2.53" transform="translate(-197.32 299.56) rotate(-33.29)" fill="#bcbcbc"/><ellipse cx="396.36" cy="484.78" rx="1.4" ry="3.62" transform="translate(-132.55 149.57) rotate(-18.36)" fill="#bcbcbc"/><rect x="351.9" y="502.88" width="16.28" height="33.75" rx="7.67" fill="#f4f4f4"/><path d="M374.61,505.42c0,4.1,5,4.07,5,9.2v18.73a3.3,3.3,0,0,1-3.29,3.28H369a3.29,3.29,0,0,1-3.28-3.28V514.62c0-5.13,5-5.1,5-9.2" fill="#b3deff"/><rect x="369.61" y="501.78" width="6.05" height="3.64" rx="1.26" fill="#df332a"/><path d="M389.23,495.19a4.62,4.62,0,1,0-9.24,0Z" fill="#df332a"/><path d="M397.91,495.19a3.29,3.29,0,1,0-6.54-.54,4.9,4.9,0,0,0,0,.54Z" fill="#bcbcbc"/><path d="M402.45,495.19c-.47-4.06-2.52-8.57-5.18-7.32-2,.92-.88,4.35.75,7.32Z" fill="#4bb7e3"/><path d="M404.74,495.19c1.3-3.72,1.42-8.22-1.38-8.34-2.5-.11-3,4.59-2.67,8.34Z" fill="#df332a"/><path d="M391.73,495.19c.7-3.19.4-6.32-1.93-6.42-2.08-.09-2.75,3.16-2.74,6.42Z" fill="#4bb7e3"/><polygon points="411.97 536.63 407.98 495.19 395.72 495.19 392.15 536.63 411.97 536.63" fill="#5aa7e1"/><rect x="431.89" y="467.48" width="80.33" height="80.33" rx="10" fill="#f0f0f0"/><polyline points="487.09 495.19 470.84 495.19 467.26 536.63 483.52 536.63" fill="#f4f4f4"/><path d="M483.53,536.63,494.17,529l9.19,7.68Z" fill="#4bb7e3"/><path d="M494.94,486.87c.33-1.06.91-4.35.23-6.16" fill="none" stroke="#bcbcbc" stroke-linecap="round" stroke-linejoin="round" stroke-width="2.47"/><ellipse cx="493.74" cy="479.8" rx="1.27" ry="2.53" transform="translate(-182.33 349.71) rotate(-33.29)" fill="#bcbcbc"/><ellipse cx="487.74" cy="484.78" rx="1.4" ry="3.62" transform="translate(-127.9 178.36) rotate(-18.36)" fill="#bcbcbc"/><rect x="443.28" y="502.88" width="16.28" height="33.75" rx="7.67" fill="#f4f4f4"/><path d="M466,505.42c0,4.1,5,4.07,5,9.2v18.73a3.3,3.3,0,0,1-3.29,3.28h-7.36a3.3,3.3,0,0,1-3.29-3.28V514.62c0-5.13,5-5.1,5-9.2" fill="#b3deff"/><rect x="461" y="501.78" width="6.05" height="3.64" rx="1.26" fill="#df332a"/><path d="M480.61,495.19a4.62,4.62,0,1,0-9.24,0Z" fill="#df332a"/><path d="M489.29,495.19a3.3,3.3,0,1,0-6.49,0Z" fill="#bcbcbc"/><path d="M493.83,495.19c-.46-4.06-2.52-8.57-5.18-7.32-2,.92-.88,4.35.75,7.32Z" fill="#4bb7e3"/><path d="M496.12,495.19c1.3-3.72,1.42-8.22-1.38-8.34-2.49-.11-3,4.59-2.67,8.34Z" fill="#df332a"/><path d="M483.11,495.19c.71-3.19.4-6.32-1.92-6.42-2.09-.09-2.76,3.16-2.75,6.42Z" fill="#4bb7e3"/><polygon points="503.36 536.63 499.36 495.19 487.1 495.19 483.53 536.63 503.36 536.63" fill="#5aa7e1"/><rect x="145.42" y="159.64" width="91.72" height="120.7" rx="10" fill="#b3deff"/><path d="M180.82,200.32l-18.15,31.45a4,4,0,0,0,3.46,6h36.32a4,4,0,0,0,3.46-6l-18.16-31.45A4,4,0,0,0,180.82,200.32Z" fill="#e01a22" stroke="#e01a22" stroke-miterlimit="10"/><path d="M201.78,215l-10.15,17.59a4,4,0,0,0,3.46,6H215.4a4,4,0,0,0,3.46-6L208.71,215A4,4,0,0,0,201.78,215Z" fill="#fff"/><rect x="358.63" y="114.46" width="69.35" height="93.22" rx="8" fill="#f0f0f0"/><rect x="364.53" y="166.82" width="57.55" height="12.01" rx="1.58" fill="#fff"/><rect x="364.53" y="183.72" width="57.55" height="12.01" rx="1.58" fill="#fff"/><circle cx="393.31" cy="142.17" r="15.74" fill="#5aa7e1"/><rect x="471.32" y="337" width="47.87" height="81.54" rx="5.51" fill="#b3deff"/><rect x="466.48" y="341.79" width="47.87" height="81.54" rx="5.5" fill="#d9eeff"/><line x1="484.06" y1="353.76" x2="506.96" y2="353.76" fill="none" stroke="#b3deff" stroke-linecap="round" stroke-miterlimit="10" stroke-width="2"/><line x1="484.06" y1="368" x2="506.96" y2="368" fill="none" stroke="#b3deff" stroke-linecap="round" stroke-miterlimit="10" stroke-width="2"/><line x1="484.06" y1="382.24" x2="506.96" y2="382.24" fill="none" stroke="#b3deff" stroke-linecap="round" stroke-miterlimit="10" stroke-width="2"/><line x1="484.06" y1="396.47" x2="506.96" y2="396.47" fill="none" stroke="#b3deff" stroke-linecap="round" stroke-miterlimit="10" stroke-width="2"/><line x1="484.06" y1="410.71" x2="506.96" y2="410.71" fill="none" stroke="#b3deff" stroke-linecap="round" stroke-miterlimit="10" stroke-width="2"/><circle cx="475.33" cy="353.76" r="4" fill="#b3deff"/><circle cx="475.33" cy="368" r="4" fill="#b3deff"/><circle cx="475.33" cy="382.24" r="4" fill="#b3deff"/><circle cx="475.33" cy="396.47" r="4" fill="#b3deff"/><circle cx="475.33" cy="410.71" r="4" fill="#b3deff"/><rect x="534.68" y="318.42" width="47.87" height="81.54" rx="5.51" fill="#b3deff"/><rect x="529.83" y="323.21" width="47.87" height="81.54" rx="5.5" fill="#d9eeff"/><line x1="547.41" y1="335.18" x2="570.31" y2="335.18" fill="none" stroke="#b3deff" stroke-linecap="round" stroke-miterlimit="10" stroke-width="2"/><line x1="547.41" y1="349.42" x2="570.31" y2="349.42" fill="none" stroke="#b3deff" stroke-linecap="round" stroke-miterlimit="10" stroke-width="2"/><line x1="547.41" y1="363.65" x2="570.31" y2="363.65" fill="none" stroke="#b3deff" stroke-linecap="round" stroke-miterlimit="10" stroke-width="2"/><line x1="547.41" y1="377.89" x2="570.31" y2="377.89" fill="none" stroke="#b3deff" stroke-linecap="round" stroke-miterlimit="10" stroke-width="2"/><line x1="547.41" y1="392.13" x2="570.31" y2="392.13" fill="none" stroke="#b3deff" stroke-linecap="round" stroke-miterlimit="10" stroke-width="2"/><circle cx="538.68" cy="335.18" r="4" fill="#b3deff"/><circle cx="538.68" cy="349.42" r="4" fill="#b3deff"/><circle cx="538.68" cy="363.65" r="4" fill="#b3deff"/><circle cx="538.68" cy="377.89" r="4" fill="#b3deff"/><circle cx="538.68" cy="392.13" r="4" fill="#b3deff"/><rect x="274.07" y="289.88" width="173.16" height="34.51" rx="4" fill="#d9eeff"/><circle cx="294.99" cy="307.14" r="11.06" fill="#5aa7e1"/><line x1="314.8" y1="309.12" x2="431.64" y2="309.12" fill="none" stroke="#f3faff" stroke-linecap="round" stroke-miterlimit="10" stroke-width="2"/><line x1="314.8" y1="315.57" x2="431.64" y2="315.57" fill="none" stroke="#f3faff" stroke-linecap="round" stroke-miterlimit="10" stroke-width="2"/><line x1="314.59" y1="299.62" x2="371.1" y2="299.62" fill="none" stroke="#f3faff" stroke-linecap="round" stroke-miterlimit="10" stroke-width="5"/><rect x="275.57" y="231.88" width="173.16" height="34.51" rx="4" transform="translate(44.97 -55.19) rotate(9.29)" fill="#d9eeff"/><circle cx="297.35" cy="238.54" r="11.06" fill="#5aa7e1"/><line x1="316.58" y1="243.69" x2="431.88" y2="262.55" fill="none" stroke="#f3faff" stroke-linecap="round" stroke-miterlimit="10" stroke-width="2"/><line x1="315.54" y1="250.06" x2="430.84" y2="268.92" fill="none" stroke="#f3faff" stroke-linecap="round" stroke-miterlimit="10" stroke-width="2"/><line x1="317.91" y1="234.28" x2="373.68" y2="243.41" fill="none" stroke="#f3faff" stroke-linecap="round" stroke-miterlimit="10" stroke-width="5"/><rect x="274.07" y="335.93" width="173.16" height="34.51" rx="4" fill="#d9eeff"/><circle cx="294.99" cy="353.19" r="11.06" fill="#5aa7e1"/><line x1="314.8" y1="355.17" x2="431.64" y2="355.17" fill="none" stroke="#f3faff" stroke-linecap="round" stroke-miterlimit="10" stroke-width="2"/><line x1="314.8" y1="361.62" x2="431.64" y2="361.62" fill="none" stroke="#f3faff" stroke-linecap="round" stroke-miterlimit="10" stroke-width="2"/><line x1="314.59" y1="345.67" x2="371.1" y2="345.67" fill="none" stroke="#f3faff" stroke-linecap="round" stroke-miterlimit="10" stroke-width="5"/><rect x="73.51" y="319.6" width="119" height="67.24" rx="4" fill="#05518d"/><polyline points="91.33 341.64 84.78 335.16 91.26 328.61" fill="none" stroke="#5aa7e1" stroke-linecap="round" stroke-linejoin="round" stroke-width="2"/><polyline points="174.76 377.83 181.25 371.28 174.7 364.79" fill="none" stroke="#5aa7e1" stroke-linecap="round" stroke-linejoin="round" stroke-width="2"/><line x1="151.42" y1="334.84" x2="170.72" y2="334.75" fill="none" stroke="#5aa7e1" stroke-linecap="round" stroke-linejoin="round" stroke-width="2"/><line x1="116.96" y1="335" x2="133.9" y2="334.92" fill="none" stroke="#5aa7e1" stroke-linecap="round" stroke-linejoin="round" stroke-width="2"/><line x1="97.09" y1="335.1" x2="107.03" y2="335.05" fill="none" stroke="#5aa7e1" stroke-linecap="round" stroke-linejoin="round" stroke-width="2"/><line x1="130.1" y1="343.61" x2="170.76" y2="343.42" fill="none" stroke="#5aa7e1" stroke-linecap="round" stroke-linejoin="round" stroke-width="2"/><line x1="97.13" y1="343.77" x2="121.25" y2="343.65" fill="none" stroke="#5aa7e1" stroke-linecap="round" stroke-linejoin="round" stroke-width="2"/><line x1="156.45" y1="353.02" x2="170.81" y2="352.95" fill="none" stroke="#5aa7e1" stroke-linecap="round" stroke-linejoin="round" stroke-width="2"/><line x1="128.31" y1="353.15" x2="153" y2="353.04" fill="none" stroke="#5aa7e1" stroke-linecap="round" stroke-linejoin="round" stroke-width="2"/><line x1="97.18" y1="353.3" x2="107.11" y2="353.26" fill="none" stroke="#5aa7e1" stroke-linecap="round" stroke-linejoin="round" stroke-width="2"/><line x1="159.82" y1="360.93" x2="170.84" y2="360.88" fill="none" stroke="#5aa7e1" stroke-linecap="round" stroke-linejoin="round" stroke-width="2"/><line x1="97.22" y1="361.23" x2="141.55" y2="361.02" fill="none" stroke="#5aa7e1" stroke-linecap="round" stroke-linejoin="round" stroke-width="2"/><line x1="150.56" y1="371.42" x2="170.89" y2="371.33" fill="none" stroke="#5aa7e1" stroke-linecap="round" stroke-linejoin="round" stroke-width="2"/><line x1="126.1" y1="371.54" x2="141.6" y2="371.47" fill="none" stroke="#5aa7e1" stroke-linecap="round" stroke-linejoin="round" stroke-width="2"/><line x1="97.27" y1="371.68" x2="111.39" y2="371.61" fill="none" stroke="#5aa7e1" stroke-linecap="round" stroke-linejoin="round" stroke-width="2"/><rect x="196.11" y="51.43" width="110.47" height="69.22" rx="8" fill="#d9eeff"/><rect x="208.3" y="83.27" width="57.81" height="26.38" rx="1.58" fill="#fff"/><circle cx="283.77" cy="96.46" r="10.61" fill="#5aa7e1"/><line x1="208.3" y1="63.92" x2="291.8" y2="63.92" fill="none" stroke="#b3deff" stroke-linecap="round" stroke-miterlimit="10" stroke-width="2"/><line x1="208.3" y1="72.85" x2="291.8" y2="72.85" fill="none" stroke="#b3deff" stroke-linecap="round" stroke-miterlimit="10" stroke-width="2"/></svg>