<svg xmlns="http://www.w3.org/2000/svg" width="600" height="600" viewBox="0 0 600 600"><path d="M332,539.89c-53.16,17.38-119.41.51-178.83-32.29s-112-81.73-124.28-138.37,16.17-121.11,47-176.83c31-55.74,64.73-102.83,108.17-116.12S280.7,83.69,338.65,92.7,459.22,99.3,508.39,129s85,91.43,75.67,145.23c-9.5,53.82-64.21,99.57-111.66,148.2C425.14,471,385.15,522.52,332,539.89Z" fill="#f3faff"/><rect x="132.13" y="75.13" width="67.07" height="155.77" fill="#dcdcdc"/><path d="M478.11,247.18H438.63a5.07,5.07,0,0,0-3.36,1.27l-10.73,9.39a4.37,4.37,0,0,0-1.5,3.29v50.32a4.41,4.41,0,0,0,4.42,4.41h50.65Z" fill="#05518d"/><rect x="436.71" y="182.53" width="10.75" height="230.31" fill="#dcdcdc"/><rect x="457.13" y="315.86" width="10.75" height="96.98" fill="#dcdcdc"/><path d="M360.66,211V75.13h53.4V211c0,53.5-28.28,96.23-102.13,96.23H90.73v-53.4h221.2c35.24,0,48.73-20.39,48.73-45.91" fill="#05518d"/><rect x="478.11" y="182.53" width="19.66" height="230.31" fill="#dcdcdc"/><path d="M415.91,451.55V426.67a8.17,8.17,0,0,0-8.14-8.14H113.45a8.17,8.17,0,0,0-8.14,8.14v24.88Z" fill="#003d66"/><circle cx="406.75" cy="119.17" r="21.62" fill="none" stroke="#dcdcdc" stroke-linecap="round" stroke-miterlimit="10" stroke-width="2.35"/><line x1="406.75" y1="119.17" x2="385.12" y2="116.54" fill="none" stroke="#dcdcdc" stroke-linecap="round" stroke-miterlimit="10" stroke-width="2.35"/><rect x="125.71" y="104.21" width="24.37" height="73.11" rx="12" fill="#bebebe"/><rect x="212.89" y="382.18" width="68.94" height="37.91" rx="6.09" fill="#5aa7e1"/><polyline points="220.71 393.6 216.53 389.42 220.71 385.25" fill="none" stroke="#b3deff" stroke-linecap="round" stroke-linejoin="round" stroke-width="1.81"/><polyline points="274.02 417.02 278.19 412.85 274.02 408.67" fill="none" stroke="#b3deff" stroke-linecap="round" stroke-linejoin="round" stroke-width="1.81"/><line x1="259.21" y1="389.42" x2="271.56" y2="389.42" fill="none" stroke="#b3deff" stroke-linecap="round" stroke-linejoin="round" stroke-width="1.81"/><line x1="237.14" y1="389.42" x2="247.99" y2="389.42" fill="none" stroke="#b3deff" stroke-linecap="round" stroke-linejoin="round" stroke-width="1.81"/><line x1="224.42" y1="389.42" x2="230.78" y2="389.42" fill="none" stroke="#b3deff" stroke-linecap="round" stroke-linejoin="round" stroke-width="1.81"/><line x1="245.53" y1="394.98" x2="271.56" y2="394.98" fill="none" stroke="#b3deff" stroke-linecap="round" stroke-linejoin="round" stroke-width="1.81"/><line x1="224.42" y1="394.98" x2="239.86" y2="394.98" fill="none" stroke="#b3deff" stroke-linecap="round" stroke-linejoin="round" stroke-width="1.81"/><line x1="262.37" y1="401.08" x2="271.56" y2="401.08" fill="none" stroke="#b3deff" stroke-linecap="round" stroke-linejoin="round" stroke-width="1.81"/><line x1="244.35" y1="401.08" x2="260.16" y2="401.08" fill="none" stroke="#b3deff" stroke-linecap="round" stroke-linejoin="round" stroke-width="1.81"/><line x1="224.42" y1="401.08" x2="230.78" y2="401.08" fill="none" stroke="#b3deff" stroke-linecap="round" stroke-linejoin="round" stroke-width="1.81"/><line x1="264.5" y1="406.16" x2="271.56" y2="406.16" fill="none" stroke="#b3deff" stroke-linecap="round" stroke-linejoin="round" stroke-width="1.81"/><line x1="224.42" y1="406.16" x2="252.81" y2="406.16" fill="none" stroke="#b3deff" stroke-linecap="round" stroke-linejoin="round" stroke-width="1.81"/><line x1="258.55" y1="412.85" x2="271.56" y2="412.85" fill="none" stroke="#b3deff" stroke-linecap="round" stroke-linejoin="round" stroke-width="1.81"/><line x1="242.88" y1="412.85" x2="252.81" y2="412.85" fill="none" stroke="#b3deff" stroke-linecap="round" stroke-linejoin="round" stroke-width="1.81"/><line x1="224.42" y1="412.85" x2="233.46" y2="412.85" fill="none" stroke="#b3deff" stroke-linecap="round" stroke-linejoin="round" stroke-width="1.81"/><rect x="6.44" y="49.71" width="113.06" height="113.06" rx="26.89" fill="#d9eeff"/><polyline points="84.15 88.71 61.27 88.71 56.24 147.05 79.12 147.05" fill="#f4f4f4"/><path d="M79.13,147.05l15-10.82L107,147.05Z" fill="#4bb7e3"/><path d="M95.2,77c.46-1.49,1.27-6.12.32-8.66" fill="none" stroke="#bcbcbc" stroke-linecap="round" stroke-linejoin="round" stroke-width="3.61"/><ellipse cx="93.51" cy="67.06" rx="1.78" ry="3.56" transform="translate(-21.46 62.32) rotate(-33.29)" fill="#bcbcbc"/><ellipse cx="85.06" cy="74.07" rx="1.97" ry="5.09" transform="matrix(0.95, -0.32, 0.32, 0.95, -19, 30.57)" fill="#bcbcbc"/><rect x="22.49" y="99.54" width="22.91" height="47.51" rx="10.83" fill="#f4f4f4"/><path d="M54.45,103.12c0,5.77,7,5.72,7,12.95v26.35a4.64,4.64,0,0,1-4.62,4.63H46.49a4.65,4.65,0,0,1-4.63-4.63V116.07c0-7.23,7-7.18,7-12.95" fill="#b3deff"/><rect x="47.42" y="98" width="8.51" height="5.12" rx="1.69" fill="#e01a22" stroke="#e01a22" stroke-miterlimit="10"/><path d="M75,88.71a6.5,6.5,0,1,0-13,0Z" fill="#e01a22" stroke="#e01a22" stroke-miterlimit="10"/><path d="M87.25,88.71a4.64,4.64,0,1,0-9.15,0Z" fill="#bcbcbc"/><path d="M93.63,88.71C93,83,90.09,76.65,86.35,78.41c-2.77,1.3-1.24,6.12,1.05,10.3Z" fill="#4bb7e3"/><path d="M96.86,88.71c1.82-5.23,2-11.56-1.94-11.73-3.52-.16-4.17,6.46-3.76,11.73Z" fill="#e01a22" stroke="#e01a22" stroke-miterlimit="10"/><path d="M78.54,88.71c1-4.48.57-8.89-2.7-9-2.94-.13-3.88,4.45-3.87,9Z" fill="#4bb7e3"/><polygon points="107.04 147.05 101.41 88.71 84.16 88.71 79.13 147.05 107.04 147.05" fill="#b3deff"/><rect x="326.7" y="369.7" width="37.87" height="49.84" rx="5.94" fill="#f0f0f0"/><path d="M337.54,389.64l-3.6,6.24a5,5,0,0,0,4.31,7.48h7.22a5,5,0,0,0,4.32-7.48l-3.61-6.24A5,5,0,0,0,337.54,389.64Z" fill="#df3329"/><path d="M349.14,394l-2.43,4.21a3.41,3.41,0,0,0,3,5.11h4.86a3.4,3.4,0,0,0,3-5.11L355.05,394A3.42,3.42,0,0,0,349.14,394Z" fill="#b3deff"/><line x1="106.99" y1="294.88" x2="291.41" y2="294.88" fill="none" stroke="#f0f0f0" stroke-linecap="round" stroke-miterlimit="10" stroke-width="3.85"/><line x1="106.99" y1="340.3" x2="291.41" y2="340.3" fill="none" stroke="#f0f0f0" stroke-linecap="round" stroke-miterlimit="10" stroke-width="3.85"/><path d="M132.13,294.88V340.3" fill="none" stroke="#f0f0f0" stroke-linecap="round" stroke-miterlimit="10" stroke-width="3.85"/><path d="M159,294.88V340.3" fill="none" stroke="#f0f0f0" stroke-linecap="round" stroke-miterlimit="10" stroke-width="3.85"/><path d="M185.78,294.88V340.3" fill="none" stroke="#f0f0f0" stroke-linecap="round" stroke-miterlimit="10" stroke-width="3.85"/><path d="M212.61,294.88V340.3" fill="none" stroke="#f0f0f0" stroke-linecap="round" stroke-miterlimit="10" stroke-width="3.85"/><path d="M239.44,294.88V340.3" fill="none" stroke="#f0f0f0" stroke-linecap="round" stroke-miterlimit="10" stroke-width="3.85"/><path d="M266.27,294.88V340.3" fill="none" stroke="#f0f0f0" stroke-linecap="round" stroke-miterlimit="10" stroke-width="3.85"/><circle cx="137.9" cy="117.44" r="6.39" fill="#fff"/><circle cx="137.9" cy="140.77" r="6.39" fill="#fff"/><circle cx="137.9" cy="164.11" r="6.39" fill="#fff"/><rect x="311.93" y="247.18" width="8.77" height="65.85" rx="4.38" fill="#003d66"/><line x1="360.66" y1="206.09" x2="414.06" y2="206.09" fill="none" stroke="#003d66" stroke-linecap="round" stroke-miterlimit="10" stroke-width="2.35"/><line x1="389.56" y1="280.56" x2="349.58" y2="240.58" fill="none" stroke="#003d66" stroke-linecap="round" stroke-miterlimit="10" stroke-width="2.35"/><path d="M415.91,455.67V430.79a8.16,8.16,0,0,0-8.14-8.14H113.45a8.16,8.16,0,0,0-8.14,8.14v24.88Z" fill="#05518d"/><circle cx="158.69" cy="437.15" r="9.16" fill="#fff"/><circle cx="253.72" cy="437.15" r="9.16" fill="#fff"/><circle cx="348.76" cy="437.15" r="9.16" fill="#fff"/><line x1="177.74" y1="399.96" x2="203.44" y2="399.96" fill="none" stroke="#dcdcdc" stroke-linecap="round" stroke-miterlimit="10" stroke-width="2.35"/><polyline points="198.65 395.17 203.44 399.96 198.65 404.74" fill="none" stroke="#dcdcdc" stroke-linecap="round" stroke-linejoin="round" stroke-width="2.35"/><line x1="289.92" y1="399.96" x2="315.61" y2="399.96" fill="none" stroke="#dcdcdc" stroke-linecap="round" stroke-miterlimit="10" stroke-width="2.35"/><polyline points="310.33 395.17 315.11 399.96 310.33 404.74" fill="none" stroke="#dcdcdc" stroke-linecap="round" stroke-linejoin="round" stroke-width="2.35"/><rect x="166.13" y="42.01" width="25.65" height="188.9" fill="#f0f0f0"/><circle cx="466.82" cy="258.39" r="5.89" fill="#fff"/><circle cx="455.73" cy="282.47" r="5.89" fill="#fff"/><line x1="455.73" y1="282.47" x2="457.71" y2="285.43" fill="none" stroke="#003056" stroke-linecap="round" stroke-miterlimit="10" stroke-width="2.35"/><line x1="466.82" y1="258.39" x2="469.47" y2="255.89" fill="none" stroke="#003056" stroke-linecap="round" stroke-miterlimit="10" stroke-width="2.35"/><circle cx="455.73" cy="282.47" r="1.22" fill="#003d66"/><circle cx="466.82" cy="258.39" r="1.22" fill="#003d66"/><rect x="394.83" y="64.61" width="177.32" height="123.81" rx="17.92" fill="#f0f0f0"/><path d="M457.16,97.7l-27.51,47.64a10,10,0,0,0,8.62,14.92h55a10,10,0,0,0,8.62-14.92L474.39,97.7A10,10,0,0,0,457.16,97.7Z" fill="#e01a22" stroke="#e01a22" stroke-miterlimit="10"/><path d="M509,118.81,491.55,149a7.54,7.54,0,0,0,6.53,11.31h34.8A7.54,7.54,0,0,0,539.41,149L522,118.81A7.55,7.55,0,0,0,509,118.81Z" fill="#b3deff"/><circle cx="432.11" cy="545.41" r="16.73" fill="#f0f0f0"/><circle cx="558.84" cy="545.41" r="16.73" fill="#f0f0f0"/><path d="M592.35,482l-31.08-51.13a8.31,8.31,0,0,0-7.1-4H525.84a8.31,8.31,0,0,0-8.3,8.31v69.66a8.31,8.31,0,0,0,8.3,8.31h59.41a8.31,8.31,0,0,0,8.31-8.31V486.34A8.31,8.31,0,0,0,592.35,482Zm-25.23-3.4H535.53a5.72,5.72,0,0,1-5.71-5.72V442.66a5.71,5.71,0,0,1,5.71-5.71h12.7a5.7,5.7,0,0,1,4.84,2.68L572,469.87A5.72,5.72,0,0,1,567.12,478.62Z" fill="#f0f0f0"/><rect x="397.56" y="405.85" width="114.18" height="106.33" rx="17.36" fill="#f0f0f0"/><path d="M586.25,516.23H404.76a7.3,7.3,0,0,0-7.3,7.31v9.85a7.3,7.3,0,0,0,7.3,7.3h8.71a19.23,19.23,0,0,1,37.29,0H540.2a19.23,19.23,0,0,1,37.29,0h8.76a7.31,7.31,0,0,0,7.31-7.3v-9.85A7.31,7.31,0,0,0,586.25,516.23Z" fill="#f0f0f0"/><rect x="131.8" y="357.05" width="37.17" height="63.31" rx="5.5" fill="#d9eeff"/><line x1="145.45" y1="366.34" x2="163.23" y2="366.34" fill="none" stroke="#b3deff" stroke-linecap="round" stroke-miterlimit="10" stroke-width="2"/><line x1="145.45" y1="377.39" x2="163.23" y2="377.39" fill="none" stroke="#b3deff" stroke-linecap="round" stroke-miterlimit="10" stroke-width="2"/><line x1="145.45" y1="388.45" x2="163.23" y2="388.45" fill="none" stroke="#b3deff" stroke-linecap="round" stroke-miterlimit="10" stroke-width="2"/><line x1="145.45" y1="399.5" x2="163.23" y2="399.5" fill="none" stroke="#b3deff" stroke-linecap="round" stroke-miterlimit="10" stroke-width="2"/><line x1="145.45" y1="410.56" x2="163.23" y2="410.56" fill="none" stroke="#b3deff" stroke-linecap="round" stroke-miterlimit="10" stroke-width="2"/><circle cx="138.67" cy="366.34" r="3.11" fill="#b3deff"/><circle cx="138.67" cy="377.39" r="3.11" fill="#b3deff"/><circle cx="138.67" cy="388.45" r="3.11" fill="#b3deff"/><circle cx="138.67" cy="399.5" r="3.11" fill="#b3deff"/><circle cx="138.67" cy="410.56" r="3.11" fill="#b3deff"/><rect x="133.07" y="247.88" width="173.16" height="34.51" rx="4" fill="#d9eeff"/><circle cx="153.99" cy="265.14" r="11.06" fill="#5aa7e1"/><line x1="173.8" y1="267.12" x2="290.64" y2="267.12" fill="none" stroke="#f3faff" stroke-linecap="round" stroke-miterlimit="10" stroke-width="2"/><line x1="173.8" y1="273.57" x2="290.64" y2="273.57" fill="none" stroke="#f3faff" stroke-linecap="round" stroke-miterlimit="10" stroke-width="2"/><line x1="173.59" y1="257.62" x2="230.1" y2="257.62" fill="none" stroke="#f3faff" stroke-linecap="round" stroke-miterlimit="10" stroke-width="5"/><rect x="296.87" y="53.31" width="80.23" height="81.72" rx="8" fill="#f0f0f0"/><circle cx="315.81" cy="75.15" r="11.67" fill="#fff"/><polyline points="321.13 72.49 314 79.63 310.43 76.06" fill="none" stroke="#b3deff" stroke-linecap="round" stroke-linejoin="round" stroke-width="2"/><line x1="333.26" y1="69.5" x2="370.48" y2="69.5" fill="none" stroke="#b3deff" stroke-linecap="round" stroke-miterlimit="10" stroke-width="2"/><line x1="333.26" y1="81.86" x2="370.48" y2="81.86" fill="none" stroke="#b3deff" stroke-linecap="round" stroke-miterlimit="10" stroke-width="2"/><line x1="304.14" y1="94.23" x2="370.48" y2="94.23" fill="none" stroke="#b3deff" stroke-linecap="round" stroke-miterlimit="10" stroke-width="2"/><line x1="304.14" y1="106.6" x2="370.48" y2="106.6" fill="none" stroke="#b3deff" stroke-linecap="round" stroke-miterlimit="10" stroke-width="2"/><line x1="304.14" y1="118.97" x2="370.48" y2="118.97" fill="none" stroke="#b3deff" stroke-linecap="round" stroke-miterlimit="10" stroke-width="2"/></svg>