<svg xmlns="http://www.w3.org/2000/svg" width="600" height="600" viewBox="0 0 600 600"><circle cx="369.19" cy="514.43" r="22.5" fill="#fafafa"/><circle cx="380.03" cy="469.04" r="12.5" fill="#fafafa"/><path d="M473.08,51.08c58.22,15.09,99,85.6,83.68,144.4s-86.67,106-126.36,168-47.59,139-87,172.29-110.11,23.07-158.17-11.34-73.64-93-97.44-146.82S41.61,274.93,56,239.43s65-57.83,105.57-76.06,71.13-32.84,124.34-60.13S414.73,35.87,473.08,51.08Z" fill="#f3faff"/><path d="M148.79,79.47c11.4,10,29.35,11.94,32.14,18.4s-9.55,17.42-19.15,25.07-16.41,12-24,15.7a64.74,64.74,0,0,1-27.16,7.07c-11.21.4-25.28-1.8-30.8-10.27S77.33,112.22,79,96.36s1.85-32.88,9.72-43.53S112,38,122.24,44.79,137.36,69.51,148.79,79.47Z" fill="#fafafa"/><circle cx="523.43" cy="416.29" r="26.7" fill="#f0f0f0"/><line x1="313.96" y1="466.49" x2="329.45" y2="496.53" fill="none" stroke="#424874" stroke-linecap="round" stroke-miterlimit="10" stroke-width="5"/><line x1="215.26" y1="466.49" x2="199.76" y2="496.53" fill="none" stroke="#424874" stroke-linecap="round" stroke-miterlimit="10" stroke-width="5"/><polygon points="519.16 399.61 496.73 306.37 460.41 306.37 447.2 451.81 524.8 451.81 519.16 399.61" fill="#e01a22" stroke="#e01a22" stroke-miterlimit="10"/><circle cx="419.81" cy="449.58" r="29.88" fill="#fafafa"/><circle cx="427.21" cy="486.62" r="29.88" fill="#fafafa"/><circle cx="481.87" cy="484.8" r="44.55" fill="#f0f0f0"/><circle cx="522.06" cy="445.57" r="38.94" fill="#fafafa"/><circle cx="532.49" cy="482.65" r="26.7" fill="#fafafa"/><circle cx="564.63" cy="466.08" r="5.05" fill="#f0f0f0"/><circle cx="526.39" cy="522.01" r="8.53" fill="#fafafa"/><path d="M478.28,124.18V124l-.08.1-.09-.1v.2c-48.07,53.9-34.89,141.53-20,187.29h40.11C513.17,265.71,526.35,178.08,478.28,124.18Z" fill="#f0f0f0"/><circle cx="478.2" cy="176.36" r="10.05" fill="#5aa7e1"/><path d="M456.93,284.57V247a4.13,4.13,0,0,0-6.49-3.4c-12.06,8.36-35.14,30.91-42.13,44.86a4.14,4.14,0,0,0,4.26,5.95c10.76-1.48,32.31-4.53,40.8-5.73A4.14,4.14,0,0,0,456.93,284.57Z" fill="#dcdcdc"/><rect x="154.28" y="463.04" width="220.65" height="3.45" fill="#424874"/><rect x="154.28" y="222.3" width="220.65" height="240.74" rx="12.77" fill="#f0f0f0"/><path d="M190.91,509.29l6.26,9.19a1.74,1.74,0,0,1,.22.48l.43,1.61a1.56,1.56,0,0,0,2.2,1l21-10.49a1.56,1.56,0,0,0-.6-3l-10.76-.64a1.57,1.57,0,0,1-1.12-.57L203.75,501a1.57,1.57,0,0,0-2-.34l-10.34,6.41A1.56,1.56,0,0,0,190.91,509.29Z" fill="#d9eeff"/><path d="M74.35,442.3c0,22.58,9.06,28.41,31.23,28.41,6.8,0,30.68-2.75,34.64-5.26,0,3.15-.48,47.83-.48,47.83s16.91,4,19.26,3.07,13.15-78.35,11.49-80.12c-8.19-8.72-57.76-12.07-82.95-6.46C77.88,431.92,74.35,431.78,74.35,442.3Z" fill="#e01a22"/><rect x="32.48" y="178.68" width="112.51" height="112.51" rx="28.83" fill="#d9eeff"/><polyline points="109.81 217.5 87.04 217.5 82.03 275.55 104.8 275.55" fill="#f4f4f4"/><path d="M104.81,275.55l14.92-10.77,12.86,10.77Z" fill="#30bfb8"/><path d="M120.8,205.84c.46-1.48,1.27-6.09.32-8.62" fill="none" stroke="#e2e2e2" stroke-linecap="round" stroke-linejoin="round" stroke-width="4"/><ellipse cx="119.12" cy="195.95" rx="1.78" ry="3.54" transform="translate(-88 97.53) rotate(-33.29)" fill="#e2e2e2"/><ellipse cx="110.72" cy="202.93" rx="1.96" ry="5.07" transform="translate(-58.3 45.22) rotate(-18.36)" fill="#bcbcbc"/><rect x="48.45" y="228.27" width="22.8" height="47.28" rx="10.22" fill="#f4f4f4"/><path d="M80.25,231.83c0,5.75,7,5.69,7,12.89v26.22a4.62,4.62,0,0,1-4.6,4.61H72.33a4.62,4.62,0,0,1-4.6-4.61V244.72c0-7.2,7-7.14,7-12.89" fill="#b3deff"/><rect x="73.26" y="226.74" width="8.47" height="5.1" rx="1.81" fill="#df332a"/><path d="M100.73,217.5a6.47,6.47,0,1,0-12.94,0Z" fill="#df332a"/><path d="M112.89,217.5a4.77,4.77,0,0,0,.06-.76,4.62,4.62,0,0,0-9.23,0,4.77,4.77,0,0,0,.07.76Z" fill="#bcbcbc"/><path d="M119.24,217.5c-.65-5.68-3.52-12-7.25-10.26-2.75,1.3-1.23,6.1,1.05,10.26Z" fill="#28b2af"/><path d="M122.46,217.5c1.81-5.21,2-11.51-1.93-11.68-3.5-.16-4.15,6.43-3.75,11.68Z" fill="#df332a"/><path d="M104.23,217.5c1-4.47.56-8.85-2.7-9-2.91-.13-3.85,4.43-3.85,9Z" fill="#28b2af"/><path d="M115.15,365c12.91-4.33,15.35,44.73,14.57,49.51,2.34,2,15.58,13,15.58,13l-8.34,2-24.37-3.45Z" fill="#d9eeff"/><path d="M82,363.47c17.1,1.55,5.23,40.94,3.56,47.17,2.78.67,49.28,16.46,49.28,16.46l-5.23,5s-53.73-4.45-65.19-9.34C62.09,421.77,61.61,361.62,82,363.47Z" fill="#d9eeff"/><circle cx="102.13" cy="339.83" r="12.24" fill="#d9eeff"/><path d="M82.79,330.15c0-4.6,3.59-7.5,5.11-7.5s3.19,3,3.19,3.75c0-5.73,14.18-15,20.11-15,4.74,0,4.91,1.59,4.91,2.85a11.6,11.6,0,0,1-2.78,7.57,14.12,14.12,0,0,1,6.37-2.06c5.12,0,5.77,3.65,5.77,5,0,7.68-10.48,10.68-11.48,10.75s-3.59-1.84-10.21-1.07c-.82.09-3,2.79-3,5.13-.92,0-6.77-.14-7.28-.14-2.2,0-2.37,5.31-2.86,5.31C83.32,344.76,82.79,331.7,82.79,330.15Z" fill="#05518d"/><circle cx="92.42" cy="340.61" r="3.5" fill="#d9eeff"/><path d="M168.6,426.71H136.42l18.85-33.92a1.68,1.68,0,0,1,1.46-.85h28.36a1.67,1.67,0,0,1,1.46,2.48Z" fill="#5aa7e1"/><path d="M325.37,352.45l0,.25a1.53,1.53,0,0,1-.53,1.35,2.39,2.39,0,0,1-3.88-.68.92.92,0,0,0-.88-.58l-.41,0a.87.87,0,0,0-.82.82l-.49,7.88a1.59,1.59,0,0,0,1.15,1.61,4.42,4.42,0,0,1,3.16,4.64,1.5,1.5,0,0,1-.24.68c-1.46,2.3-2.58,3.08-3.55,3.28a1.55,1.55,0,0,0-1.23,1.44l-.32,5.29a1.58,1.58,0,0,0,1,1.56l5.71,2.35a1.58,1.58,0,0,0,2.17-1.35L328,354.07a1.58,1.58,0,0,0-1.68-1.68Z" fill="#fff"/><path d="M333.88,363.09a3.1,3.1,0,0,1-.92.14,3.19,3.19,0,0,1-2-5.68l-2.8-5.28-2.08,30.93a20.05,20.05,0,0,0,16.06-4.53Zm-2.75,16.27a2.14,2.14,0,1,1,2.13-2.14A2.13,2.13,0,0,1,331.13,379.36Z" fill="#5aa7e1"/><path d="M347.6,411.74c0,4.79,6.63,4.75,6.63,10.74v21.86c0,2.11-3,3.83-6.55,3.83H333c-3.6,0-6.54-1.72-6.54-3.83V422.48c0-6,6.83-6,6.83-10.74" fill="#f3faff"/><rect x="330.08" y="407.43" width="20.53" height="4.31" rx="1.93" fill="#5aa7e1"/><rect x="329.61" y="427.35" width="21.47" height="7.76" rx="2" fill="#b3deff"/><path d="M499.46,284.41V247.32a4.32,4.32,0,0,1,6.78-3.54c12,8.45,34.58,30.49,41.68,44.36a4.3,4.3,0,0,1-4.44,6.2c-10.8-1.48-31.81-4.45-40.31-5.66A4.31,4.31,0,0,1,499.46,284.41Z" fill="#b3deff"/><path d="M499.46,284.41V247.32a4.32,4.32,0,0,1,6.78-3.54c12,8.45,34.58,30.49,41.68,44.36a4.3,4.3,0,0,1-4.44,6.2c-10.8-1.48-31.81-4.45-40.31-5.66A4.31,4.31,0,0,1,499.46,284.41Z" fill="#dcdcdc"/><path d="M468.41,512.74v11.61a1.75,1.75,0,0,0,.17.75l1,2a1.71,1.71,0,0,1-1.54,2.46H436.68a1.71,1.71,0,0,1-.75-3.25l15.47-7.54a1.72,1.72,0,0,0,1-1.54V514a1.7,1.7,0,0,1,1.54-1.7L466.53,511A1.71,1.71,0,0,1,468.41,512.74Z" fill="#b3deff"/><path d="M489.9,489.08,500,494.92a1.69,1.69,0,0,0,.73.23l2.21.15a1.7,1.7,0,0,1,1.35,2.55L488.46,525a1.7,1.7,0,0,1-3.16-1l1.25-17.24a1.69,1.69,0,0,0-.84-1.59l-2.79-1.62a1.7,1.7,0,0,1-.69-2.17l5.27-11.57A1.7,1.7,0,0,1,489.9,489.08Z" fill="#b3deff"/><path d="M449.77,513.13,427.21,378.87h40.25l2.26,132.67C466.55,513.36,452.94,515,449.77,513.13Z" fill="#05518d"/><path d="M427.21,378.87h6.24l-.09-.27-10.47-1.26c-7.47,16.29-16.32,70.61-15.4,73.29C408,452,426,465.71,444,479Z" fill="#054672"/><path d="M469,468.65l.49,28.67c6.1,4.28,10.25,7.05,10.75,7.05,2.12,0,9.86-15.39,9.68-17.15C489.8,486.17,478.21,476.33,469,468.65Z" fill="#054672"/><path d="M433.34,295.23c.11,1.18-1.34,13.62-6.13,15.54,3.78,4,17.68,2.24,17.68,2.24l1.41-14Z" fill="#003d66"/><circle cx="444.43" cy="289.06" r="13.96" fill="#d9eeff"/><path d="M430,283.23c0-12,11.42-14.69,15.07-14.69,16.78,0,20.53,18.16,20.53,20.52,0,23.58,10.54,31,10.54,35.32S454,331.44,454,327.86V293s-.28-2.8-1.56-2.8-3.12-2.49-3.12-3.33v-3.56Z" fill="#003d66"/><circle cx="452.8" cy="290.04" r="3.31" fill="#d9eeff"/><path d="M427.21,310.77c-1.88,0-28.29,13.54-29.57,13.71s-39.18,0-39.18,0-5.45-6.36-5.8-6.36-1,2.25-.21,3.47a94.49,94.49,0,0,0-10.09-1.32c-.63,0-3-.15-3,3.4,0,5.41,5.17,8,8.47,8s4.72-.11,6.1.2,37,11.39,44.91,11.39c2.41,0,23.92-6,25.53-6.81S427.21,310.77,427.21,310.77Z" fill="#b3deff"/><path d="M470.33,355.75s-22.95-36.55-6.72-43.64a7.2,7.2,0,0,1,6.51.3,4.64,4.64,0,0,0-.47-1.74c-2.21-2.64-42.29-2.75-43.2-.77-3.2,7-6.6,66-4.19,68.66,3.73,4.12,24.25,5.57,37.18,4.53Z" fill="#5aa7e1"/><path d="M463.61,312.11c14.87-6.5,25.9,38.57,25.9,43.2s-25.35,44.41-27,45.51c-1.11-1.65-6.84-8.27-6.84-8.27l14.66-36.8S447.38,319.2,463.61,312.11Z" fill="#b3deff"/><path d="M454,314.74c0,2.45-11.19,2.75-11.19,0V297.4H454Z" fill="#d9eeff"/><path d="M170.53,440.71c-.54,8-2.72,25.3-5.07,41.35L190,509.86l16.68-12.4Z" fill="#cc000f"/><path d="M147.59,515l-.1,0-.73-.15h-.07c-1.87-.39-3.59-.77-4.86-1.06l-2.09-.48s.21-19.16.35-33.27V480c0-2.45,0-4.75.07-6.77v-.4c0-.47,0-.92,0-1.35s0-1.1,0-1.59h-23l-.89.09h-.08l-.77.08h-.12l-1.64.16h-.14l-.71.07h-.07l-.78.07h-.1l-.62.05h-.17l-.67.06h0l-.67,0-.16,0-.5,0H109l-.59,0h-.09l-.48,0h-.17l-.41,0h-.13l-.48,0h-1l-1.87,0H103l-1.06,0-.91,0-.76,0c-.35,0-.69,0-1-.06l-.48,0q-2.86-.21-5.37-.63H76.71A8.14,8.14,0,0,0,68.56,478v47.37a8.14,8.14,0,0,0,8.15,8.14h63.57a8.13,8.13,0,0,0,8.14-8.14V515.17l-.09,0Z" fill="#f0f0f0"/><path d="M85.56,410.64c1.8.43,21.87,7.19,35.83,11.91.34-16.27-1.76-57.39-4-59.3s-23.73-1-34.26.38C98.58,366.75,87.19,404.55,85.56,410.64Z" fill="#b3deff"/><path d="M103.49,363.6c0,1.91-10,1.87-10,0V346.69h10Z" fill="#d9eeff"/><path d="M74,425.31c.16,5.45.55,9.1,1.2,9.47,9.22,5.24,34.44,1,43-3.71C105.9,429.87,86.4,427.75,74,425.31Z" fill="#b3deff"/><polygon points="132.59 275.55 126.98 217.5 109.82 217.5 104.81 275.55 132.59 275.55" fill="#b3deff"/><path d="M157.66,525.7a1.68,1.68,0,0,1-.49-1.25l.28-7.45a1.46,1.46,0,0,0-.06-.51c-3.42-.11-10.68-1.64-14.74-2.54a1.68,1.68,0,0,0-.3.74L141,525.57a1.68,1.68,0,0,1-.16.54l-.68,1.35a1.68,1.68,0,0,0,1.07,2.37l22.13,5.95a1.68,1.68,0,0,0,1.63-2.81Z" fill="#d9eeff"/><path d="M118.35,426.71H168.6a0,0,0,0,1,0,0v3a2.42,2.42,0,0,1-2.42,2.42H118.35a2.42,2.42,0,0,1-2.42-2.42v-.56A2.42,2.42,0,0,1,118.35,426.71Z" fill="#5aa7e1"/><path d="M416.55,104.09l-7.64.43a3.66,3.66,0,0,0-2.84,5.66l4.2,6.39a3.65,3.65,0,0,0,6.31-.36l3.44-6.83A3.65,3.65,0,0,0,416.55,104.09Z" fill="#b3deff"/><path d="M411.21,114l-8.91,7.68a4.28,4.28,0,0,0,1.39,7.28l11.1,3.88A4.28,4.28,0,0,0,420.4,128l-2.19-11.56A4.28,4.28,0,0,0,411.21,114Z" fill="none" stroke="#e7e7e7" stroke-linecap="round" stroke-linejoin="round" stroke-width="4"/><path d="M65.83,72.6l6.59,15.64A6.17,6.17,0,0,0,83,89.57L93.28,76a6.17,6.17,0,0,0-4.15-9.85L72.29,64.07A6.18,6.18,0,0,0,65.83,72.6Z" fill="none" stroke="#e7e7e7" stroke-linecap="round" stroke-linejoin="round" stroke-width="4"/><circle cx="43.49" cy="120.59" r="13.17" fill="#b3deff"/><rect x="163.68" y="261.3" width="65.6" height="86.32" rx="8" fill="#f3faff"/><path d="M204.69,307.26l-7.51,13a4,4,0,0,0,3.47,6h15a4,4,0,0,0,3.46-6l-7.51-13A4,4,0,0,0,204.69,307.26Z" fill="#b3deff"/><rect x="168.22" y="265.66" width="56.39" height="12.26" rx="2" fill="#d9eeff"/><path d="M187,295.54,172.7,320.27a4,4,0,0,0,3.46,6h28.56a4,4,0,0,0,3.46-6L193.9,295.54A4,4,0,0,0,187,295.54Z" fill="#e01a22" stroke="#e01a22" stroke-miterlimit="10"/><path d="M498.69,156.26a120.65,120.65,0,0,0-20.41-32.08V124l-.08.1-.09-.1v.2a120.36,120.36,0,0,0-20.4,32.08Z" fill="#e01a22" stroke="#e01a22" stroke-miterlimit="10"/><circle cx="513.75" cy="73.73" r="15.09" fill="#d9eeff"/><rect x="162" y="118.29" width="119" height="67.24" rx="4" fill="#05518d"/><polyline points="179.81 140.34 173.26 133.85 179.75 127.3" fill="none" stroke="#5aa7e1" stroke-linecap="round" stroke-linejoin="round" stroke-width="2"/><polyline points="263.25 176.52 269.73 169.97 263.18 163.48" fill="none" stroke="#5aa7e1" stroke-linecap="round" stroke-linejoin="round" stroke-width="2"/><line x1="239.91" y1="133.53" x2="259.21" y2="133.44" fill="none" stroke="#5aa7e1" stroke-linecap="round" stroke-linejoin="round" stroke-width="2"/><line x1="205.45" y1="133.7" x2="222.39" y2="133.62" fill="none" stroke="#5aa7e1" stroke-linecap="round" stroke-linejoin="round" stroke-width="2"/><line x1="185.58" y1="133.79" x2="195.52" y2="133.75" fill="none" stroke="#5aa7e1" stroke-linecap="round" stroke-linejoin="round" stroke-width="2"/><line x1="218.59" y1="142.31" x2="259.25" y2="142.11" fill="none" stroke="#5aa7e1" stroke-linecap="round" stroke-linejoin="round" stroke-width="2"/><line x1="185.62" y1="142.46" x2="209.74" y2="142.35" fill="none" stroke="#5aa7e1" stroke-linecap="round" stroke-linejoin="round" stroke-width="2"/><line x1="244.94" y1="151.71" x2="259.29" y2="151.64" fill="none" stroke="#5aa7e1" stroke-linecap="round" stroke-linejoin="round" stroke-width="2"/><line x1="216.79" y1="151.85" x2="241.49" y2="151.73" fill="none" stroke="#5aa7e1" stroke-linecap="round" stroke-linejoin="round" stroke-width="2"/><line x1="185.67" y1="152" x2="195.6" y2="151.95" fill="none" stroke="#5aa7e1" stroke-linecap="round" stroke-linejoin="round" stroke-width="2"/><line x1="248.3" y1="159.62" x2="259.33" y2="159.57" fill="none" stroke="#5aa7e1" stroke-linecap="round" stroke-linejoin="round" stroke-width="2"/><line x1="185.7" y1="159.92" x2="230.04" y2="159.71" fill="none" stroke="#5aa7e1" stroke-linecap="round" stroke-linejoin="round" stroke-width="2"/><line x1="239.05" y1="170.12" x2="259.38" y2="170.02" fill="none" stroke="#5aa7e1" stroke-linecap="round" stroke-linejoin="round" stroke-width="2"/><line x1="214.59" y1="170.23" x2="230.09" y2="170.16" fill="none" stroke="#5aa7e1" stroke-linecap="round" stroke-linejoin="round" stroke-width="2"/><line x1="185.75" y1="170.37" x2="199.88" y2="170.31" fill="none" stroke="#5aa7e1" stroke-linecap="round" stroke-linejoin="round" stroke-width="2"/><rect x="320.93" y="135.76" width="66.87" height="66.87" rx="11.49" fill="#d9eeff"/><rect x="348.62" y="182" width="11.17" height="2.71" transform="translate(233.39 -196.76) rotate(45)" fill="#b3deff"/><rect x="349.04" y="184.04" width="7.14" height="1.82" transform="translate(234.06 -195.16) rotate(45)" fill="#b3deff"/><path d="M360.11,178.06a1.17,1.17,0,1,1-.61-.61L365,172c-2.73,1.4-9.16,4.64-10.58,5a3.76,3.76,0,0,1-1.41,3.25l2.19,2.18,2.18,2.19a3.76,3.76,0,0,1,3.25-1.41c.35-1.42,3.58-7.85,5-10.58Z" fill="#5aa7e1"/><path d="M325.89,169.19c0-6.42,7.53-13.94,14.69-13.94,11.72,0,14.19,13.94,26.29,13.94,10.24,0,13.39-10.67,13.39-13.94" fill="none" stroke="#fff" stroke-linecap="round" stroke-miterlimit="10"/><line x1="327.38" y1="155.25" x2="353.78" y2="155.25" fill="none" stroke="#fff" stroke-linecap="round" stroke-miterlimit="10"/><rect x="326.17" y="154.75" width="1" height="1" rx="0.5" fill="none" stroke="#4bb7e3" stroke-linecap="round" stroke-miterlimit="10"/><rect x="353.86" y="154.75" width="1" height="1" rx="0.5" fill="none" stroke="#4bb7e3" stroke-linecap="round" stroke-miterlimit="10"/><line x1="353.65" y1="169.19" x2="380.04" y2="169.19" fill="none" stroke="#fff" stroke-linecap="round" stroke-miterlimit="10"/><rect x="352.43" y="168.69" width="1" height="1" rx="0.5" fill="none" stroke="#4bb7e3" stroke-linecap="round" stroke-miterlimit="10"/><rect x="380.13" y="168.69" width="1" height="1" rx="0.5" fill="none" stroke="#4bb7e3" stroke-linecap="round" stroke-miterlimit="10"/><rect x="365.78" y="168.19" width="2" height="2" rx="1" fill="#dcdcdc" stroke="#003056" stroke-linecap="round" stroke-miterlimit="10" stroke-width="2"/><rect x="339.58" y="154.25" width="2" height="2" rx="1" fill="none" stroke="#003056" stroke-linecap="round" stroke-miterlimit="10" stroke-width="2"/><rect x="243.87" y="345.05" width="47.87" height="81.54" rx="5.51" fill="#b3deff"/><rect x="239.02" y="349.84" width="47.87" height="81.54" rx="5.5" fill="#d9eeff"/><line x1="256.6" y1="361.81" x2="279.5" y2="361.81" fill="none" stroke="#b3deff" stroke-linecap="round" stroke-miterlimit="10" stroke-width="2"/><line x1="256.6" y1="376.05" x2="279.5" y2="376.05" fill="none" stroke="#b3deff" stroke-linecap="round" stroke-miterlimit="10" stroke-width="2"/><line x1="256.6" y1="390.28" x2="279.5" y2="390.28" fill="none" stroke="#b3deff" stroke-linecap="round" stroke-miterlimit="10" stroke-width="2"/><line x1="256.6" y1="404.52" x2="279.5" y2="404.52" fill="none" stroke="#b3deff" stroke-linecap="round" stroke-miterlimit="10" stroke-width="2"/><line x1="256.6" y1="418.76" x2="279.5" y2="418.76" fill="none" stroke="#b3deff" stroke-linecap="round" stroke-miterlimit="10" stroke-width="2"/><circle cx="247.87" cy="361.81" r="4" fill="#b3deff"/><circle cx="247.87" cy="376.05" r="4" fill="#b3deff"/><circle cx="247.87" cy="390.28" r="4" fill="#b3deff"/><circle cx="247.87" cy="404.52" r="4" fill="#b3deff"/><circle cx="247.87" cy="418.76" r="4" fill="#b3deff"/><rect x="240.81" y="238.66" width="110.47" height="69.22" rx="8" fill="#d9eeff"/><rect x="253.01" y="270.5" width="57.81" height="26.38" rx="2" fill="#f3faff"/><circle cx="328.47" cy="283.69" r="10.61" fill="#5aa7e1"/><line x1="253.01" y1="251.15" x2="336.5" y2="251.15" fill="none" stroke="#b3deff" stroke-linecap="round" stroke-miterlimit="10" stroke-width="2"/><line x1="253.01" y1="260.08" x2="336.5" y2="260.08" fill="none" stroke="#b3deff" stroke-linecap="round" stroke-miterlimit="10" stroke-width="2"/></svg>