<svg width="53px" height="54px" viewBox="0 0 53 54" version="1.1" xmlns="http://www.w3.org/2000/svg" xmlns:xlink="http://www.w3.org/1999/xlink">
    <g id="Working" stroke="none" stroke-width="1" fill="none" fill-rule="evenodd" opacity="0.65">
        <g id="Resources" transform="translate(-523.000000, -504.000000)" fill-rule="nonzero" stroke="#20211F" stroke-width="2">
            <g id="IconSet" transform="translate(524.000000, 505.409505)">
                <path d="M25.48725,0 C11.3985,0 0,11.41125 0,25.5 C0,39.58875 11.3985,51 25.48725,51 C39.576,51 51,39.58875 51,25.5 C51,11.41125 39.576,0 25.48725,0 Z M34.425,22.95 C36.5415,22.95 38.25,21.2415 38.25,19.125 C38.25,17.0085 36.5415,15.3 34.425,15.3 C32.3085,15.3 30.6,17.0085 30.6,19.125 C30.6,21.2415 32.3085,22.95 34.425,22.95 Z M16.575,22.95 C18.6915,22.95 20.4,21.2415 20.4,19.125 C20.4,17.0085 18.6915,15.3 16.575,15.3 C14.4585,15.3 12.75,17.0085 12.75,19.125 C12.75,21.2415 14.4585,22.95 16.575,22.95 Z" id="Shape"></path>
                <path d="M16.5,30.5904948 C16.5,35.5629948 20.523,39.5904948 25.4955,39.5904948 C30.468,39.5904948 34.5,35.5629948 34.5,30.5904948" id="Shape" stroke-linecap="round"></path>
            </g>
        </g>
    </g>
</svg>