<svg xmlns="http://www.w3.org/2000/svg" width="16" height="16" viewBox="0 0 16 16"><title>attachment</title><g opacity="0.65"><line vector-effect="non-scaling-stroke" x1="13.96" y1="9.1" x2="9.72" y2="12.92" fill="none" stroke="#20211f" stroke-linecap="round" stroke-miterlimit="10" stroke-width="2"/><line vector-effect="non-scaling-stroke" x1="9.72" y1="5.28" x2="5.48" y2="9.1" fill="none" stroke="#20211f" stroke-linecap="round" stroke-miterlimit="10" stroke-width="2"/><line vector-effect="non-scaling-stroke" x1="8.31" y1="2.74" x2="3.36" y2="7.19" fill="none" stroke="#20211f" stroke-linecap="round" stroke-miterlimit="10" stroke-width="2"/><line vector-effect="non-scaling-stroke" x1="12.55" y1="6.55" x2="7.6" y2="11.01" fill="none" stroke="#20211f" stroke-linecap="round" stroke-miterlimit="10" stroke-width="2"/><path vector-effect="non-scaling-stroke" d="M9.72,12.92a4.86,4.86,0,0,1-6.36,0,3.77,3.77,0,0,1,0-5.73" fill="none" stroke="#20211f" stroke-linecap="round" stroke-miterlimit="10" stroke-width="2"/><path vector-effect="non-scaling-stroke" d="M8.31,2.74a3.22,3.22,0,0,1,4.24,0,2.51,2.51,0,0,1,0,3.81" fill="none" stroke="#20211f" stroke-linecap="round" stroke-miterlimit="10" stroke-width="2"/><path vector-effect="non-scaling-stroke" d="M7.6,11a1.61,1.61,0,0,1-2.12,0,1.25,1.25,0,0,1,0-1.91" fill="none" stroke="#20211f" stroke-linecap="round" stroke-miterlimit="10" stroke-width="2"/></g></svg>