<svg xmlns="http://www.w3.org/2000/svg" width="16" height="16" viewBox="0 0 16 16"><title>barcode</title><g opacity="0.65"><path vector-effect="non-scaling-stroke" d="M8,4v8M5.5,4v8M14,4v8m-2.5-.46V4.46A.45.45,0,0,0,11,4H11a.45.45,0,0,0-.46.46v7.08A.45.45,0,0,0,11,12H11A.45.45,0,0,0,11.5,11.54Zm-8.5,0V4.46A.45.45,0,0,0,2.54,4H2.46A.45.45,0,0,0,2,4.46v7.08a.45.45,0,0,0,.46.46h.08A.45.45,0,0,0,3,11.54Z" fill="none" stroke="#20211f" stroke-linecap="round" stroke-miterlimit="10" stroke-width="2"/></g></svg>