<svg xmlns="http://www.w3.org/2000/svg" width="16" height="16" viewBox="0 0 16 16"><path vector-effect="non-scaling-stroke" d="M14.81,9.34A7,7,0,0,1,8,14a7.19,7.19,0,0,1-5.8-2.75A6.09,6.09,0,0,1,4,2.34a1.82,1.82,0,0,1,2.14,0c.61.73-.48,1.75,0,2.33,1.25,1.41,3.91-1.36,7,0C15.4,5.7,15.08,8.37,14.81,9.34ZM9,8.5A1.5,1.5,0,1,0,10.5,7,1.5,1.5,0,0,0,9,8.5ZM4,7a.5.5,0,1,0,.5.5A.5.5,0,0,0,4,7Zm2,3a.5.5,0,1,0,.5.5A.5.5,0,0,0,6,10Z" fill="none" stroke="#20211f" stroke-miterlimit="10" stroke-width="2" opacity="0.65"/></svg>
