<svg xmlns="http://www.w3.org/2000/svg" width="16" height="16" viewBox="0 0 16 16"><title>phone</title><path vector-effect="non-scaling-stroke" d="M14,11v1.81A1.19,1.19,0,0,1,12.81,14H12.7a11.8,11.8,0,0,1-5.16-1.85A11.64,11.64,0,0,1,4,8.53,11.85,11.85,0,0,1,2.13,3.32,1.2,1.2,0,0,1,3.21,2h1.9A1.18,1.18,0,0,1,6.3,3a7.74,7.74,0,0,0,.43,1.72A1.19,1.19,0,0,1,6.45,6l-.76.76a9.5,9.5,0,0,0,3.59,3.61L10,9.61a1.17,1.17,0,0,1,1.24-.28,7.71,7.71,0,0,0,1.7.43A1.2,1.2,0,0,1,14,11Z" fill="none" stroke="#20211f" stroke-linecap="round" stroke-linejoin="round" stroke-width="2" opacity="0.65"/></svg>