<svg xmlns="http://www.w3.org/2000/svg" width="16" height="16" viewBox="0 0 16 16"><title>settings</title><path vector-effect="non-scaling-stroke" d="M8,6.2A1.8,1.8,0,1,1,6.2,8,1.81,1.81,0,0,1,8,6.2Zm5.65,3.07h.06a1.27,1.27,0,0,0,0-2.54H13.6a1.06,1.06,0,0,1-1-.63v0a1.08,1.08,0,0,1,.21-1.16l0,0h0a1.26,1.26,0,0,0,0-1.79h0a1.26,1.26,0,0,0-1.79,0l0,0a1.05,1.05,0,0,1-1.79-.74V2.29a1.27,1.27,0,1,0-2.54,0V2.4a1.06,1.06,0,0,1-.63,1h0a1.08,1.08,0,0,1-1.16-.21l0,0h0a1.26,1.26,0,0,0-1.79,0h0a1.26,1.26,0,0,0,0,1.79l0,0A1,1,0,0,1,3.3,6.1a1,1,0,0,1-.95.68H2.29a1.27,1.27,0,0,0,0,2.54H2.4a1.06,1.06,0,0,1,1,.63,1.08,1.08,0,0,1-.21,1.16l0,0h0a1.26,1.26,0,0,0,0,1.79h0a1.26,1.26,0,0,0,1.79,0l0,0A1,1,0,0,1,6.1,12.7a1,1,0,0,1,.68,1v.06a1.27,1.27,0,1,0,2.54,0V13.6a1.06,1.06,0,0,1,.63-1,1.08,1.08,0,0,1,1.16.21l0,0h0a1.26,1.26,0,0,0,1.79,0h0a1.26,1.26,0,0,0,0-1.79l0,0a1.05,1.05,0,0,1,.74-1.79Z" fill="none" stroke="#20211f" stroke-linecap="round" stroke-linejoin="round" stroke-width="2" opacity="0.65"/></svg>