<svg xmlns="http://www.w3.org/2000/svg" width="16" height="16" viewBox="0 0 16 16"><title>swap</title><path vector-effect="non-scaling-stroke" d="M13.11,15H10.89A1.89,1.89,0,0,1,9,13.11V10.89A1.89,1.89,0,0,1,10.89,9h2.22A1.89,1.89,0,0,1,15,10.89v2.22A1.89,1.89,0,0,1,13.11,15ZM4,9.41V11a3.23,3.23,0,0,0,2,3M2,11,4,9.41,6,11M1,2.89V5.11A1.89,1.89,0,0,0,2.89,7H5.11A1.89,1.89,0,0,0,7,5.11V2.89A1.89,1.89,0,0,0,5.11,1H2.89A1.89,1.89,0,0,0,1,2.89ZM9,2m3,4.59V4.94A3.08,3.08,0,0,0,10,2m4,3L12,6.59,10,5" fill="none" stroke="#20211f" stroke-linecap="round" stroke-linejoin="round" stroke-width="2" opacity="0.65"/></svg>