<svg xmlns="http://www.w3.org/2000/svg" width="16" height="16" viewBox="0 0 16 16"><title>tiles</title><path vector-effect="non-scaling-stroke" d="M4.11,15H2.89A1.89,1.89,0,0,1,1,13.11V11.89A1.89,1.89,0,0,1,2.89,10H4.11A1.89,1.89,0,0,1,6,11.89v1.22A1.89,1.89,0,0,1,4.11,15ZM15,13.11V11.89A1.89,1.89,0,0,0,13.11,10H11.89A1.89,1.89,0,0,0,10,11.89v1.22A1.89,1.89,0,0,0,11.89,15h1.22A1.89,1.89,0,0,0,15,13.11Zm-9-9V2.89A1.89,1.89,0,0,0,4.11,1H2.89A1.89,1.89,0,0,0,1,2.89V4.11A1.89,1.89,0,0,0,2.89,6H4.11A1.89,1.89,0,0,0,6,4.11Zm9,0V2.89A1.89,1.89,0,0,0,13.11,1H11.89A1.89,1.89,0,0,0,10,2.89V4.11A1.89,1.89,0,0,0,11.89,6h1.22A1.89,1.89,0,0,0,15,4.11Z" fill="none" stroke="#20211f" stroke-linecap="round" stroke-linejoin="round" stroke-width="2" opacity="0.65"/></svg>