<svg xmlns="http://www.w3.org/2000/svg" xmlns:xlink="http://www.w3.org/1999/xlink" width="200" height="142" viewBox="0 0 200 142">
    <defs>
        <path id="a" d="M4 0h163a4 4 0 0 1 4 4v112a4 4 0 0 1-4 4H4a4 4 0 0 1-4-4V4a4 4 0 0 1 4-4z"/>
        <filter id="b" width="201.2%" height="250%" x="-50.6%" y="-64.6%" filterUnits="objectBoundingBox">
            <feMorphology in="SourceAlpha" radius="3.5" result="shadowSpreadOuter1"/>
            <feOffset dy="11" in="shadowSpreadOuter1" result="shadowOffsetOuter1"/>
            <feGaussianBlur in="shadowOffsetOuter1" result="shadowBlurOuter1" stdDeviation="7.5"/>
            <feColorMatrix in="shadowBlurOuter1" result="shadowMatrixOuter1" values="0 0 0 0 0 0 0 0 0 0 0 0 0 0 0 0 0 0 0.2 0"/>
            <feMorphology in="SourceAlpha" operator="dilate" radius="4" result="shadowSpreadOuter2"/>
            <feOffset dy="9" in="shadowSpreadOuter2" result="shadowOffsetOuter2"/>
            <feGaussianBlur in="shadowOffsetOuter2" result="shadowBlurOuter2" stdDeviation="23"/>
            <feColorMatrix in="shadowBlurOuter2" result="shadowMatrixOuter2" values="0 0 0 0 0 0 0 0 0 0 0 0 0 0 0 0 0 0 0.12 0"/>
            <feMorphology in="SourceAlpha" operator="dilate" radius="1.5" result="shadowSpreadOuter3"/>
            <feOffset dy="24" in="shadowSpreadOuter3" result="shadowOffsetOuter3"/>
            <feGaussianBlur in="shadowOffsetOuter3" result="shadowBlurOuter3" stdDeviation="19"/>
            <feColorMatrix in="shadowBlurOuter3" result="shadowMatrixOuter3" values="0 0 0 0 0 0 0 0 0 0 0 0 0 0 0 0 0 0 0.14 0"/>
            <feMerge>
                <feMergeNode in="shadowMatrixOuter1"/>
                <feMergeNode in="shadowMatrixOuter2"/>
                <feMergeNode in="shadowMatrixOuter3"/>
            </feMerge>
        </filter>
    </defs>
    <g fill="none" fill-rule="evenodd">
        <rect width="200" height="142" rx="2"/>
        <g transform="translate(15.5 11)">
            <mask id="c" fill="#fff">
                <use xlink:href="#a"/>
            </mask>
            <use fill="#000" filter="url(#b)" xlink:href="#a"/>
            <use fill="#FAFAFA" xlink:href="#a"/>
            <g fill="#FFF" mask="url(#c)">
                <path d="M0 0h171v120H0z"/>
            </g>
        </g>
        <text fill="#727272" font-family="SourceSansPro-Regular, Source Sans Pro" font-size="16" transform="translate(39.5 36)">
            <tspan x="0" y="15">Alert dialog </tspan> <tspan x="0" y="39">prompt</tspan>
        </text>
        <text fill="#36C88C" font-family="SourceSansPro-Semibold, Source Sans Pro" font-size="16" font-weight="500" letter-spacing="1" transform="translate(15.5 11)">
            <tspan x="81.186" y="100">ACTION 2</tspan>
        </text>
        <path fill="#A53BC2" fill-rule="nonzero" d="M15 11h171v33H15zM15 78h171v20H15zM15 111h171v20H15z" opacity=".5"/>
        <path stroke="#FFF" stroke-dasharray="3" stroke-linecap="square" d="M15.156 140.469H186.5M6.5 131.5L6 11"/>
    </g>
</svg>
