<svg xmlns="http://www.w3.org/2000/svg" width="200" height="142" viewBox="0 0 200 142">
    <g fill="none" fill-rule="evenodd">
        <rect width="200" height="142" rx="2"/>
        <g transform="translate(23 22)">
            <path d="M0 .625v25h24v-25z"/>
            <rect width="18" height="18.75" x="3" y="3.125" stroke="#FFF" stroke-linecap="round" stroke-linejoin="round" rx="9"/>
            <rect width="12" height="12.5" x="6" y="6.25" fill="#FFF" rx="6"/>
        </g>
        <text fill="#FFF" font-family="SourceSansPro-Regular, Source Sans Pro" font-size="16" transform="translate(23 20)">
            <tspan x="50" y="15">Radio 1</tspan>
        </text>
        <g transform="translate(23 59)">
            <path d="M0 .625v25h24v-25z"/>
            <rect width="18" height="18.75" x="3" y="3.125" stroke="#FFF" stroke-linecap="round" stroke-linejoin="round" rx="9"/>
        </g>
        <text fill="#FFF" font-family="SourceSansPro-Regular, Source Sans Pro" font-size="16" transform="translate(23 20)">
            <tspan x="51" y="52">Radio 2</tspan>
        </text>
        <g transform="translate(23 94)">
            <path d="M0 .625v25h24v-25z"/>
            <rect width="18" height="18.75" x="3" y="3.125" stroke="#FFF" stroke-linecap="round" stroke-linejoin="round" rx="9"/>
        </g>
        <text fill="#FFF" font-family="SourceSansPro-Regular, Source Sans Pro" font-size="16" transform="translate(23 20)">
            <tspan x="51" y="87">Radio 3</tspan>
        </text>
        <path stroke="#9517B8" d="M46 46H24V24h22zM46 82H24V60h22zM46 118H24V96h22z"/>
        <path fill="#A53BC2" fill-rule="nonzero" d="M189 46.5v13H23v-13z" opacity=".5"/>
        <path fill="#A53BC2" fill-rule="nonzero" d="M47 24h25v95H47z" opacity=".5"/>
        <path fill="#A53BC2" fill-rule="nonzero" d="M189 82.5v13H23v-13z" opacity=".5"/>
    </g>
</svg>
