<svg xmlns="http://www.w3.org/2000/svg" xmlns:xlink="http://www.w3.org/1999/xlink" width="200" height="142" viewBox="0 0 200 142">
    <defs>
        <circle id="b" cx="14.5" cy="14.914" r="13.5"/>
        <filter id="a" width="203.7%" height="203.7%" x="-51.9%" y="-40.7%" filterUnits="objectBoundingBox">
            <feMorphology in="SourceAlpha" operator="dilate" radius=".5" result="shadowSpreadOuter1"/>
            <feOffset dy="3" in="shadowSpreadOuter1" result="shadowOffsetOuter1"/>
            <feGaussianBlur in="shadowOffsetOuter1" result="shadowBlurOuter1" stdDeviation=".5"/>
            <feComposite in="shadowBlurOuter1" in2="SourceAlpha" operator="out" result="shadowBlurOuter1"/>
            <feColorMatrix in="shadowBlurOuter1" result="shadowMatrixOuter1" values="0 0 0 0 0 0 0 0 0 0 0 0 0 0 0 0 0 0 0.06 0"/>
            <feMorphology in="SourceAlpha" operator="dilate" radius=".5" result="shadowSpreadOuter2"/>
            <feOffset dy="3" in="shadowSpreadOuter2" result="shadowOffsetOuter2"/>
            <feGaussianBlur in="shadowOffsetOuter2" result="shadowBlurOuter2" stdDeviation="4"/>
            <feComposite in="shadowBlurOuter2" in2="SourceAlpha" operator="out" result="shadowBlurOuter2"/>
            <feColorMatrix in="shadowBlurOuter2" result="shadowMatrixOuter2" values="0 0 0 0 0 0 0 0 0 0 0 0 0 0 0 0 0 0 0.15 0"/>
            <feMerge>
                <feMergeNode in="shadowMatrixOuter1"/>
                <feMergeNode in="shadowMatrixOuter2"/>
            </feMerge>
        </filter>
        <circle id="d" cx="35" cy="15" r="14"/>
        <filter id="c" width="128.6%" height="128.6%" x="-14.3%" y="-7.1%" filterUnits="objectBoundingBox">
            <feOffset dy="2" in="SourceAlpha" result="shadowOffsetOuter1"/>
            <feGaussianBlur in="shadowOffsetOuter1" result="shadowBlurOuter1" stdDeviation="1"/>
            <feComposite in="shadowBlurOuter1" in2="SourceAlpha" operator="out" result="shadowBlurOuter1"/>
            <feColorMatrix in="shadowBlurOuter1" values="0 0 0 0 0.176470588 0 0 0 0 0.176470588 0 0 0 0 0.176470588 0 0 0 0.2 0"/>
        </filter>
    </defs>
    <g fill="none" fill-rule="evenodd">
        <rect width="200" height="142" rx="2"/>
        <path fill="#20211F" d="M134.857 56.12c1.74-.096 3.478-.089 5.218-.089h8.817c1.774 0 3.512-.007 5.251.09 1.581.087 3.121.272 4.654.687 3.227.873 6.045 2.697 8.082 5.281A14.438 14.438 0 0 1 170 71.03c0 3.233-1.096 6.375-3.121 8.943-2.037 2.584-4.855 4.408-8.082 5.281-1.533.415-3.073.6-4.654.688-1.739.097-3.477.088-5.217.088l-8.819.001c-1.772 0-3.51.008-5.25-.089-1.58-.088-3.12-.273-4.653-.688-3.227-.873-6.045-2.697-8.082-5.28A14.435 14.435 0 0 1 119 71.03a14.44 14.44 0 0 1 3.122-8.942c2.037-2.584 4.855-4.408 8.082-5.28 1.533-.416 3.073-.601 4.653-.689z"/>
        <g transform="translate(119 56.031)">
            <use fill="#000" filter="url(#a)" xlink:href="#b"/>
            <circle cx="14.5" cy="14.914" r="13.75" fill="#FFF" stroke="#000" stroke-opacity=".04" stroke-width=".5"/>
        </g>
        <g transform="translate(29 56.031)">
            <rect width="50" height="30" fill="#36C88C" rx="15"/>
            <use fill="#000" filter="url(#c)" xlink:href="#d"/>
            <circle cx="35" cy="15" r="13.75" fill="#FFF" stroke="#F0F0F0" stroke-linejoin="square" stroke-width=".5"/>
        </g>
        <text fill="#FFF" fill-opacity=".87" font-family="Roboto-Regular, Roboto" font-size="12" transform="translate(19 46.031)">
            <tspan x="28.18" y="78.969">on</tspan>
        </text>
        <text fill="#FFF" fill-opacity=".87" font-family="Roboto-Regular, Roboto" font-size="12" transform="translate(19 46.031)">
            <tspan x="118.447" y="78.969">off</tspan>
        </text>
        <path stroke="#FFF" stroke-dasharray="3" stroke-linecap="square" d="M29.844 47.531l47.687-.062M29.844 100.531L170.5 100.5M20.5 84.5l-.164-28"/>
        <path fill="#A53BC2" fill-rule="nonzero" d="M79 56h40v39H79z" opacity=".5"/>
        <path fill="#A53BC2" fill-rule="nonzero" d="M29 86h141v9H29z" opacity=".5"/>
    </g>
</svg>
